# xmcd
#
# Track frame offsets:
#	150
#	15317
#	30077
#	47798
#	61686
#	73328
#	95658
#	109915
#	124265
#	142764
#	156724
#	174196
#
# Disc length: 2729 seconds
#
# Revision: 1
# Processed by: cddbd v1.5.2PL0 Copyright (c) Steve Scherf et al.
# Submitted via: audiograbber 1.83.01
#
DISCID=9a0aa70c
DTITLE=The Trembling Highburys - Six string love affair
DYEAR=2000
DGENRE=Pop
TTITLE0=The Trembling Highburys - Six string love affair
TTITLE1=The Trembling Highburys - Do you like it
TTITLE2=The Trembling Highburys - I've never been so flying free
TTITLE3=The Trembling Highburys - Don't leave me cold
TTITLE4=The Trembling Highburys - Burning on the inside
TTITLE5=The Trembling Highburys - Three chord song
TTITLE6=The Trembling Highburys - School's out for me
TTITLE7=The Trembling Highburys - Mystery train
TTITLE8=The Trembling Highburys - But it's a long away
TTITLE9=The Trembling Highburys - I don't care
TTITLE10=The Trembling Highburys - Waiting for a train
TTITLE11=The Trembling Highburys - The chief cried
EXTD=
EXTT0=
EXTT1=
EXTT2=
EXTT3=
EXTT4=
EXTT5=
EXTT6=
EXTT7=
EXTT8=
EXTT9=
EXTT10=
EXTT11=
PLAYORDER=
